<svg width="180" height="83" viewBox="0 0 180 83" fill="none" xmlns="http://www.w3.org/2000/svg">
<g clip-path="url(#clip0_1_14)">
<path d="M84.0515 0.386046C79.6481 0.75279 73.8734 2.16186 70.1073 3.76395C66.1867 5.44325 62.3626 7.81744 55.5064 12.836L54.1738 13.8012L36.5021 13.8977L18.8305 14.0135L17.382 14.4381C14.6588 15.2874 12.4184 16.6193 10.0429 18.8584C3.95921 24.5719 0.193115 33.1035 0.193115 41.114C0.193115 44.8972 1.00427 48.7577 2.53003 52.4444C6.66307 62.3851 12.2253 67.7126 19.236 68.5233C20.279 68.6391 27.5021 68.7163 37.4678 68.7163H53.9807L54.9656 69.4498C55.5064 69.8358 57.1481 71.0712 58.5966 72.1714C66.6116 78.213 72.8884 80.9733 81.5601 82.2279C85.442 82.807 92.0858 82.8263 95.8133 82.2665C100.815 81.5137 104.968 80.2591 109.024 78.2709C112.172 76.7074 114.721 75.1054 119.646 71.5923L123.509 68.8128L142.725 68.7163L161.942 68.6005L163.584 68.1179C168.779 66.5544 172.854 62.7519 175.925 56.5944C178.107 52.2321 179.227 47.6188 179.536 41.7895C179.884 35.0337 178.223 28.9342 174.457 23.1821C172.352 19.9393 168.2 16.407 164.897 15.0172C162.386 13.9556 161.652 13.8977 149.91 13.8784C143.981 13.8591 135.541 13.8012 131.137 13.7239L123.122 13.6081L121.191 12.2763C110.704 4.9993 107.575 3.39721 100.236 1.54419C96.1223 0.50186 88.8798 -0.0193029 84.0515 0.386046ZM94.5966 4.15C101.994 5.13441 108.29 7.62441 114.895 12.2377C120.476 16.1174 121.133 16.5421 122.446 17.0246C123.219 17.3142 125.343 17.3528 141.953 17.4686C162.444 17.6037 161.961 17.5844 164.511 18.8198C166.056 19.5533 168.315 21.3291 169.629 22.7767C172.294 25.7493 174.496 30.1695 175.384 34.3774C176.002 37.2921 176.002 43.2951 175.403 46.5958C173.878 54.8958 169.822 61.3621 164.607 63.8328C162.097 65.0295 162.097 65.0295 142.127 65.0488C127.159 65.0488 123.895 65.0874 123.142 65.3191C122.06 65.6472 120.148 66.8054 117.212 68.9672C108.637 75.2019 103.114 77.5954 94.5386 78.7921C92.2983 79.1009 85.2103 79.1009 82.8541 78.7921C73.6223 77.5567 68.1953 75.0667 58.5772 67.7126C57.7081 67.037 56.4914 66.1877 55.8927 65.8209L54.7725 65.1454L36.985 65.0295C20.7425 64.933 19.1202 64.8944 18.0772 64.5856C13.9056 63.3502 10.3519 60.0302 7.59011 54.8186C4.98282 49.8579 3.86264 45.7658 3.86264 41.114C3.86264 33.9914 6.77895 27.1391 11.9742 22.0046C13.9442 20.0551 15.6824 18.897 17.7682 18.1442L19.0236 17.6809L36.7918 17.5651L54.5601 17.4686L55.8927 16.7351C56.6266 16.3298 57.5923 15.7314 58.0365 15.3839C60.0064 13.917 64.912 10.5777 66.3412 9.74767C71.5172 6.6786 76.4614 4.98 82.5644 4.15C85.0944 3.80255 91.9506 3.80255 94.5966 4.15Z" fill="#2D3047"/>
<path d="M84.1094 6.96814C80.015 7.50861 76.8669 8.3 73.7382 9.51605C69.8176 11.0409 67.7318 12.2184 63.5408 15.2488C62.1116 16.2719 60.0644 17.6809 59.0021 18.3758C55.6223 20.5763 57.882 20.3447 37.5644 20.4605L19.7961 20.557L18.6373 21.0202C16.4549 21.8888 14.8519 23.1049 12.9979 25.2861C10.2554 28.4902 8.51717 31.7909 7.5515 35.6128C6.08369 41.4421 6.72103 46.2677 9.79184 52.4058C12.0708 56.9419 14.3691 59.5863 17.2661 61.0147L18.985 61.864L35.0343 61.9991C56.7811 62.1728 55.2554 62.1149 56.7811 62.8484C57.4764 63.1765 59.8133 64.7979 61.9957 66.4193C67.0558 70.2219 68.5622 71.1484 72.1931 72.7505C77.3884 75.0281 82.5837 76.0512 88.8026 76.0512C95.0021 76.0319 100.371 74.893 105.74 72.4223C109.468 70.7044 111.785 69.2567 117.135 65.2612C118.197 64.4698 119.723 63.524 120.515 63.1379L121.964 62.443L140.987 62.3465L160.011 62.25L161.44 61.7288C164.511 60.59 166.964 58.737 168.373 56.4979C171.309 51.8461 172.622 47.31 172.796 41.1912C172.951 36.0567 172.429 33.4702 170.44 29.494C168.258 25.1316 165.592 22.3907 162.135 21.0202L160.976 20.557L141.76 20.4605C123.702 20.364 122.485 20.3447 121.577 20.0165C120.206 19.4954 119.298 18.9549 115.59 16.3877C107.71 10.9444 103.558 8.99489 96.7017 7.52791C93.4571 6.83303 87.1609 6.54349 84.1094 6.96814ZM91.9893 16.2719C92.9742 16.6965 93.824 17.5265 94.809 18.9935C97.9378 23.7419 99.7532 29.4167 100.931 38.1221C101.414 41.6737 101.414 50.2633 100.931 53.757C99.6566 63.2923 98.4013 65.8595 95.0215 65.8981C94.0365 65.9174 93.8047 65.8402 93.1481 65.3191C92.2017 64.547 91.5644 63.2923 91.5644 62.0763C91.5451 61.5744 91.7961 59.9144 92.1051 58.4088C92.4142 56.9226 92.7232 55.0502 92.8004 54.2781L92.9356 52.8884H90.2897H87.6438L87.779 54.2781C87.9528 55.8995 88.2811 57.9456 88.7446 60.0688C89.1309 61.8254 88.9571 63.0221 88.1652 64.2767C87.3154 65.6279 85.4614 66.1877 83.9163 65.5507C83.0086 65.1647 81.9463 63.9679 81.5215 62.8291C81.0193 61.4779 80.0343 57.0577 79.6674 54.4326C78.7597 47.8312 78.9528 39.3188 80.1695 33.2965C81.4442 26.9654 83.1438 22.3714 85.5579 18.8391C86.6009 17.2949 86.8906 17.0054 87.9721 16.4263C88.8798 15.9437 91.0043 15.8665 91.9893 16.2719ZM105.258 18.6267C111.901 20.0165 117.348 23.9542 119.781 29.0886C120.824 31.3277 121.288 33.5088 121.288 36.5007C121.288 43.353 119.047 47.3486 113.157 50.9967C112.384 51.4793 111.785 51.9812 111.747 52.2128C111.708 52.4251 111.515 53.7184 111.341 55.1081C110.781 59.374 109.429 63.1765 108.135 64.103C106.185 65.4928 103.345 65.2805 102.361 63.6591C101.742 62.6167 101.704 61.6709 102.245 57.8877C103.036 52.2707 103.191 49.6649 103.075 44.1444C102.94 36.52 102.341 32.814 100.082 25.3247C99.2124 22.3907 99.6953 20.0358 101.433 19.0321C102.631 18.3179 103.403 18.2407 105.258 18.6267ZM80.2854 19.2058C80.8069 19.5533 81.2318 20.3254 81.4056 21.2519C81.5021 21.773 81.4056 22.3135 81.0193 23.3751C78.8369 29.3781 78.2575 31.4242 77.485 35.8058C76.9635 38.8556 77.0408 48.2751 77.6202 52.3093C77.8712 53.95 78.103 56.2277 78.1609 57.3472C78.2575 59.2774 78.2382 59.4512 77.736 60.4356C76.8863 62.1149 75.6309 62.8677 73.294 63.0607C71.7103 63.1958 68.8906 62.5781 66.7082 61.6323C60.2575 58.8335 56.1051 53.2744 54.4635 45.2061C53.6717 41.2491 54 35.6514 55.3519 30.7486C56.0472 28.1814 56.588 27.1777 57.6695 26.4635C58.4421 25.9423 59.8519 25.8265 60.6245 26.2319C61.706 26.8109 62.0923 28.4902 61.5322 30.1502C60.4506 33.3351 59.9678 36.9061 60.1416 40.0523C60.412 44.434 61.8219 49.2981 63.309 50.9967C63.5794 51.3249 64.1202 51.4793 64.1202 51.2284C64.1202 51.1705 63.7339 49.9737 63.2704 48.5647C61.9764 44.7621 61.7253 42.967 61.8605 38.4116C61.9957 33.8949 62.4399 31.4821 64.0043 26.8109C65.2597 23.0856 65.8197 22.1012 67.0365 21.4642C68.2339 20.8658 69.1609 21.0202 70.1459 21.9854C71.2854 23.1242 71.2854 23.877 70.2232 27.1198C68.5622 32.1384 67.9828 35.5742 67.9828 40.284C67.9828 43.7391 68.3691 46.7116 69.2189 49.8386C69.9914 52.6181 70.3777 53.6605 70.6867 53.6605C71.0923 53.6605 71.1116 53.0428 70.706 51.0161C69.9528 47.1363 69.8755 46.4221 69.779 42.1563C69.6631 37.2728 69.9335 34.5319 70.9185 30.4977C71.7682 27.0233 73.8927 21.8502 74.9742 20.6535C75.5923 19.9779 76.5966 19.283 77.427 18.9742C78.2382 18.6847 79.6288 18.7812 80.2854 19.2058ZM52.9185 26.8302C54.367 27.583 54.8498 29.1658 54.0966 30.6521C53.6137 31.5786 53.2661 31.8874 51.8369 32.6016C49.5773 33.7212 48.7468 34.8407 48.6309 36.964L48.573 38.1221L49.809 38.2572C51.412 38.4309 52.4356 39.0872 52.706 40.0909C53.2082 41.8861 52.7639 43.8742 51.721 44.627C51.3734 44.8586 50.6974 45.0709 50.0408 45.1481L48.9592 45.264L49.0172 46.2291C49.1524 48.2944 50.2918 49.8579 52.088 50.4563C54.367 51.2091 55.236 53.2551 54.0773 55.1467C52.6481 57.5016 47.3176 56.7488 45.1545 53.8728C43.3777 51.5372 42.4893 48.0435 42.3541 42.8512C42.1996 37.6781 42.8755 33.5667 44.3433 30.5363C45.1352 28.9149 45.9657 28.0077 47.1438 27.4672C49.7124 26.2705 51.4893 26.0774 52.9185 26.8302ZM41.5043 26.9267C42.1223 27.2356 42.8755 28.5867 42.8755 29.3588C42.8755 29.6291 42.6051 30.6714 42.2961 31.6558C41.3691 34.5705 41.118 36.2498 41.0021 40.4384C40.8863 44.7042 41.1566 47.3679 42.0257 50.8037C42.5472 52.927 42.6051 53.7956 42.2189 54.7028C41.8133 55.6486 40.9828 56.1698 39.8047 56.1698C38.9549 56.1698 38.7425 56.0926 38.1824 55.5135C37.4099 54.7414 36.6953 52.4251 36.2124 49.1244C36.0386 47.9663 35.8648 46.9819 35.8069 46.924C35.6137 46.7309 35.5172 47.117 35.4013 48.4488C35.2468 50.1861 34.7833 50.9388 33.6245 51.3442C32.8326 51.6144 32.7747 51.6144 31.9056 51.1319C30.9592 50.6107 30.3412 49.6649 29.6073 47.5802C29.0086 45.9009 29.0858 47.2714 29.7232 49.8965C30.0515 51.2284 30.3219 52.6181 30.3219 53.0042C30.3219 55.4942 27.3669 56.5944 25.706 54.7221C25.0687 53.9886 24.6051 52.6567 23.9099 49.5877C23.5236 47.8119 23.4657 47.0784 23.4657 43.2372C23.4657 40.6314 23.5622 38.2379 23.7167 37.2535C24.2189 33.9914 25.5129 29.9958 26.5944 28.3551C27.676 26.7144 29.9163 26.3284 31.1524 27.583C31.7124 28.1428 31.7704 28.2779 31.7124 29.3009C31.4614 34.86 31.7511 40.7279 32.2725 40.7279C32.4463 40.7279 32.6781 39.9172 33.0257 38.1221C33.4506 35.8251 34.4549 32.8719 35.4592 30.8837C37.1395 27.583 38.1245 26.6372 39.9399 26.6372C40.5 26.6372 41.2146 26.7723 41.5043 26.9267ZM126.039 27.4479C126.753 27.7954 127.004 28.0849 127.642 29.3202C128.858 31.6751 129.225 33.1421 129.341 35.9602C129.418 37.543 129.515 38.4116 129.65 38.3537C130.288 38.1414 131.176 33.7212 131.099 30.9609C131.06 29.243 131.118 28.9342 131.485 28.3358C131.968 27.5637 132.721 27.2163 133.861 27.2163C134.981 27.2163 135.792 28.027 136.41 29.7642C138.612 35.9023 138.863 43.1793 137.105 49.8965C136.468 52.3479 135.637 54.2974 134.981 54.9344C134.459 55.4363 134.266 55.4942 133.146 55.4942C131.968 55.4942 131.833 55.4556 131.311 54.8572C130.654 54.1237 130.558 53.0814 131.041 51.7302C131.504 50.4177 132.335 46.2291 132.258 45.5149C132.2 44.9165 132.161 44.9744 131.427 46.5186C129.148 51.3635 127.448 54.0079 125.942 55.0309C125.421 55.3977 125.015 55.4942 124.049 55.4942C123.026 55.4942 122.775 55.417 122.369 55.0116C121.674 54.2974 121.616 53.6026 122.157 51.5372C124.011 44.4147 124.262 39.1451 123.045 32.7947C122.311 28.9342 122.485 28.0077 124.088 27.2935C124.88 26.9461 125.073 26.9654 126.039 27.4479ZM158.215 27.5251C159.779 28.3165 161.266 32.4279 161.266 35.9988C161.266 39.1451 161.73 39.1451 162.541 35.9795C162.927 34.474 163.024 33.5474 163.043 31.6558C163.062 28.8956 163.275 28.1814 164.202 27.6023C164.897 27.1777 166.268 27.0812 166.886 27.4093C168.084 28.0656 169.436 32.1384 169.976 36.6744C170.266 39.203 170.112 44.8007 169.667 47.1942C169.165 49.993 168.026 53.6026 167.33 54.6063C166.693 55.5135 164.878 55.8802 163.796 55.3012C163.197 55.0116 162.618 53.9693 162.618 53.2358C162.618 53.0042 162.811 52.2321 163.024 51.5372C163.468 50.1088 164.356 46.0747 164.356 45.3991C164.356 44.434 163.873 45.2447 161.981 49.414C160.706 52.2321 158.195 55.2626 156.959 55.4942C155.8 55.7258 154.564 55.4556 154.12 54.8765C153.599 54.2009 153.637 53.4674 154.313 50.8037C155.82 45.0516 156.129 39.0872 155.182 33.9721C154.236 28.8377 154.313 28.1235 155.916 27.4093C156.747 27.0233 157.268 27.0619 158.215 27.5251ZM142.841 27.7954C143.903 28.7991 145.062 32.177 145.352 35.1495C145.429 35.9988 145.564 36.4814 145.719 36.4814C146.337 36.4814 147.94 32.37 147.94 30.7679C147.94 28.8763 148.925 27.6023 150.393 27.6023C151.551 27.6023 152.305 28.0463 152.788 28.9921C153.174 29.7449 153.193 30.0151 153.097 32.0419C152.903 35.6707 152.015 38.0063 149.987 40.1102L148.828 41.307L149.253 41.8474C151.687 44.8393 152.768 47.9856 152.768 52.0777C152.768 53.5447 152.71 53.8921 152.324 54.4519C151.358 55.8995 149.176 55.9188 148.249 54.4712C147.921 53.9693 147.747 53.3516 147.67 52.4058C147.515 50.5528 146.105 46.3256 145.661 46.3256C145.584 46.3256 145.41 47.2714 145.294 48.4295C145.043 50.6879 144.348 53.12 143.594 54.2588C142.648 55.7065 140.562 55.9961 139.558 54.7993C138.631 53.6991 138.554 53.0042 139.114 50.244C139.886 46.48 140.079 43.8742 139.964 39.5891C139.867 36.52 139.751 35.3619 139.345 33.4895C138.418 29.3009 138.515 28.4516 139.886 27.583C140.717 27.0619 142.146 27.1777 142.841 27.7954ZM22.0172 27.6602C22.2682 27.7954 22.6931 28.2007 22.9442 28.5674C23.3305 29.1272 23.3884 29.4361 23.3305 30.324C23.2339 31.6172 22.7124 32.4279 21.4571 33.2193C19.912 34.2037 18.8112 35.4391 18.2318 36.8288C17.7876 37.9484 17.691 38.4695 17.6137 40.5542C17.5558 42.4844 17.5944 43.1986 17.8455 43.9321C18.2511 45.1481 19.3326 46.5572 20.6652 47.6381C22.5386 49.1244 22.9635 49.5684 23.2725 50.3212C23.9485 51.904 23.6202 53.3709 22.4034 54.2009C21.8047 54.6063 21.573 54.6449 20.1824 54.587C15.9335 54.3747 12.515 50.7265 11.2597 45.0902C10.8154 43.16 10.8348 39.1644 11.279 37.157C12.2253 32.8719 15.0257 29.1272 18.2704 27.8147C19.3519 27.3707 21.2833 27.2935 22.0172 27.6602Z" fill="#1B998B"/>
<path d="M89.8069 28.0849C88.5515 30.9802 87.6245 36.6744 87.721 41.0174L87.779 43.7198L90.3669 43.7777L92.9549 43.8356L92.839 39.8207C92.7811 37.5044 92.588 35.1109 92.4142 34.1651C91.9893 31.7909 91.1974 29.0114 90.676 27.9884L90.2317 27.1198L89.8069 28.0849Z" fill="#1B998B"/>
<path d="M108.174 28.3937C109.796 32.3507 111.052 38.2186 111.052 41.7316C111.052 42.3493 111.129 42.8512 111.206 42.8512C111.592 42.8512 113.002 41.1719 113.582 39.9944C114.161 38.8556 114.238 38.5274 114.296 36.8867C114.412 33.6053 113.562 31.3084 111.496 29.3009C110.743 28.5674 108.212 27.0233 107.749 27.0233C107.672 27.0233 107.865 27.6409 108.174 28.3937Z" fill="#1B998B"/>
</g>
<defs>
<clipPath id="clip0_1_14">
<rect width="180" height="83" fill="white"/>
</clipPath>
</defs>
</svg>
